<?xml version="1.0" standalone="no"?>
<!DOCTYPE svg PUBLIC "-//W3C//DTD SVG 20010904//EN"
 "http://www.w3.org/TR/2001/REC-SVG-20010904/DTD/svg10.dtd">
<svg version="1.0" xmlns="http://www.w3.org/2000/svg"
 width="300.000000pt" height="288.000000pt" viewBox="0 0 300.000000 288.000000"
 preserveAspectRatio="xMidYMid meet">
<metadata>
Created by potrace 1.10, written by Peter Selinger 2001-2011
</metadata>
<g transform="translate(0.000000,288.000000) scale(0.100000,-0.100000)"
fill="#000000" stroke="none">
<path d="M1702 2236 l-37 -35 80 -81 80 -81 33 35 c49 54 45 91 -18 150 -60
57 -86 59 -138 12z m114 -40 c37 -37 43 -66 19 -86 -14 -11 -23 -7 -60 30 -45
44 -56 74 -32 83 26 11 40 6 73 -27z"/>
<path d="M1432 1967 l-192 -192 80 -80 80 -80 193 193 192 192 -80 80 -80 80
-193 -193z m243 92 c25 -23 45 -49 45 -58 0 -21 -300 -321 -321 -321 -10 0
-36 23 -60 51 l-42 51 159 159 c87 87 162 159 167 159 4 0 28 -19 52 -41z"/>
<path d="M1200 1691 c0 -22 -4 -43 -10 -46 -5 -3 -10 -16 -10 -28 0 -14 -20
-42 -50 -72 -45 -44 -50 -54 -50 -92 l0 -43 423 1 c232 1 413 3 402 5 -25 5
-713 74 -734 74 -10 0 -4 12 18 34 20 21 39 32 50 29 10 -2 23 2 30 10 8 11
24 13 54 10 l42 -5 -80 81 c-44 44 -81 81 -82 81 -2 0 -3 -18 -3 -39z m60 -77
c0 -8 -2 -14 -4 -14 -2 0 -11 -3 -20 -6 -11 -4 -16 0 -16 13 0 11 3 22 6 26
10 9 34 -4 34 -19z"/>
<path d="M647 979 c-27 -20 -27 -21 -27 -155 0 -121 2 -136 20 -154 27 -27 56
-25 86 5 25 25 26 28 22 155 -3 136 -8 150 -54 164 -13 4 -30 -1 -47 -15z m53
-155 c0 -114 -2 -125 -17 -122 -16 3 -18 18 -21 112 -3 120 0 136 23 136 13 0
15 -19 15 -126z"/>
<path d="M795 825 l0 -175 58 0 c54 0 57 1 57 25 0 22 -4 25 -35 25 l-35 0 0
150 c0 149 0 150 -22 150 -23 0 -23 0 -23 -175z"/>
<path d="M950 825 l0 -176 57 3 c50 3 57 5 58 26 1 19 -3 22 -32 22 l-33 0 0
150 0 150 -25 0 -25 0 0 -175z"/>
<path d="M1155 985 c-2 -5 -13 -77 -25 -159 -12 -83 -22 -154 -23 -160 -1 -6
8 -12 19 -14 17 -2 23 4 28 29 3 17 6 44 6 60 0 25 4 29 29 29 27 0 29 -2 35
-60 7 -56 9 -60 32 -60 19 0 24 4 20 18 -2 9 -17 87 -32 173 l-27 156 -30 -1
c-16 -1 -31 -5 -32 -11z m49 -117 c6 -54 5 -58 -15 -58 -17 0 -20 4 -15 23 3
12 6 42 6 67 0 60 16 39 24 -32z"/>
<path d="M1543 990 c-36 -15 -43 -43 -43 -170 0 -116 1 -122 26 -146 19 -20
31 -24 52 -19 47 11 52 28 52 171 0 131 0 133 -26 153 -30 23 -30 23 -61 11z
m42 -165 c0 -106 -2 -120 -17 -123 -16 -3 -18 8 -18 123 0 115 2 126 18 123
15 -3 17 -17 17 -123z"/>
<path d="M1730 991 c0 -3 -11 -80 -25 -171 -14 -91 -25 -166 -25 -167 0 -2 11
-3 25 -3 21 0 25 5 25 29 0 62 11 91 36 91 20 0 24 -6 29 -47 4 -27 8 -54 10
-60 4 -13 45 -19 45 -7 0 9 -49 293 -55 319 -3 14 -13 20 -35 21 -16 1 -30 -2
-30 -5z m49 -153 c1 -19 -4 -28 -14 -28 -17 0 -19 30 -8 95 l7 40 7 -40 c5
-22 8 -52 8 -67z"/>
<path d="M1895 992 c-3 -3 -5 -81 -5 -174 l0 -168 25 0 c23 0 25 4 25 41 0 48
16 44 26 -6 5 -29 11 -35 31 -35 22 0 24 3 18 23 -4 12 -7 33 -6 47 9 132 10
238 2 249 -9 14 -106 33 -116 23z m83 -135 c3 -82 2 -87 -18 -87 -19 0 -20 6
-20 91 0 81 2 90 18 87 14 -3 17 -17 20 -91z"/>
<path d="M2115 985 c-2 -5 -13 -77 -25 -159 -12 -82 -24 -155 -27 -162 -3 -10
3 -14 20 -14 26 0 37 27 37 91 0 25 4 29 29 29 27 0 29 -2 35 -60 7 -56 9 -60
32 -60 19 0 24 4 20 18 -5 19 -56 308 -56 321 0 12 -62 8 -65 -4z m45 -84 c0
-16 3 -43 6 -60 6 -27 4 -31 -16 -31 -18 0 -21 4 -16 23 3 12 6 39 6 60 0 20
5 37 10 37 6 0 10 -13 10 -29z"/>
<path d="M2240 973 c0 -19 6 -23 30 -23 l30 0 0 -150 0 -150 26 0 25 0 -3 150
-3 150 28 0 c21 0 27 5 27 23 0 21 -4 22 -80 22 -76 0 -80 -1 -80 -22z"/>
<path d="M2450 823 l0 -173 55 0 c52 0 55 1 55 25 0 22 -4 25 -32 25 l-33 0 0
65 0 65 33 0 c28 0 32 3 32 25 0 22 -4 25 -33 25 -31 0 -33 2 -34 35 -1 33 1
35 33 35 29 0 34 4 34 23 0 20 -5 22 -55 22 l-55 0 0 -172z"/>
<path d="M456 968 c-12 -17 -16 -50 -16 -146 0 -117 1 -124 25 -147 29 -30 45
-31 79 -4 17 14 26 30 26 50 0 24 -4 29 -25 29 -20 0 -24 -5 -22 -22 1 -14 -4
-23 -15 -26 -16 -3 -18 8 -18 122 0 105 2 126 15 126 8 0 15 -9 15 -20 0 -15
7 -20 25 -20 29 0 33 24 9 58 -10 15 -25 22 -49 22 -24 0 -39 -7 -49 -22z"/>
<path d="M1328 820 l3 -170 37 0 c21 0 48 7 60 16 19 13 22 24 21 82 -1 123
-14 223 -29 232 -8 6 -33 10 -55 10 l-40 0 3 -170z m70 87 c2 -28 -1 -37 -12
-37 -12 0 -16 11 -16 41 0 52 24 48 28 -4z m12 -142 c0 -58 -2 -65 -20 -65
-18 0 -20 7 -20 65 0 58 2 65 20 65 18 0 20 -7 20 -65z"/>
</g>
</svg>
